<svg width="203" height="199" viewBox="0 0 203 199" fill="none" xmlns="http://www.w3.org/2000/svg">
<g id="Group">
<g id="Group_2">
<g id="Group_3">
<g id="Group_4">
<g id="Group_5">
<g id="Group_6">
<path id="Vector" d="M185 81.4975C185 81.4975 147.997 72.6159 150.958 28.2154C150.958 28.2154 132.181 13.7964 93.2383 13.4345V13.42C92.985 13.42 92.7461 13.4272 92.5 13.4272C92.2539 13.4272 92.0078 13.42 91.7617 13.42V13.4345C52.8116 13.7964 34.0424 28.2154 34.0424 28.2154C37.0029 72.6159 0 81.4975 0 81.4975C21.6429 189.719 92.0223 198.427 92.5 198.413C92.9777 198.427 163.357 189.719 185 81.4975Z" fill="white"/>
<path id="Vector_2" d="M162.062 87.5561C162.062 87.5561 134.237 80.875 136.466 47.4913C136.466 47.4913 122.344 36.6481 93.0575 36.3731V36.3586C92.8693 36.3586 92.6883 36.3658 92.5001 36.3658C92.3119 36.3658 92.131 36.3586 91.9428 36.3586V36.3731C62.656 36.6481 48.5338 47.4913 48.5338 47.4913C50.7633 80.8822 22.9387 87.5561 22.9387 87.5561C39.218 168.938 92.1382 175.489 92.5001 175.474C92.862 175.481 145.782 168.938 162.062 87.5561Z" fill="#16161C"/>
</g>
</g>
</g>
</g>
<g id="Group_7">
<g id="Group_8">
<g id="Vector_3">
<mask id="path-3-inside-1_437_2609" fill="white">
<path d="M56.2358 155.822H98.6965C103.076 155.822 106.63 152.268 106.63 147.889V33.362V11.6032C106.63 7.22396 103.076 3.66989 98.6965 3.66989H41.2594C36.8802 3.66989 33.3261 7.22396 33.3261 11.6032V79.4925V122.612"/>
</mask>
<path d="M56.2358 155.822H98.6965C103.076 155.822 106.63 152.268 106.63 147.889V33.362V11.6032C106.63 7.22396 103.076 3.66989 98.6965 3.66989H41.2594C36.8802 3.66989 33.3261 7.22396 33.3261 11.6032V79.4925V122.612" fill="#800080"/>
<path d="M56.2358 156.822H98.6965V154.822H56.2358V156.822ZM98.6965 156.822C103.628 156.822 107.63 152.82 107.63 147.889H105.63C105.63 151.715 102.523 154.822 98.6965 154.822V156.822ZM107.63 147.889V33.362H105.63V147.889H107.63ZM107.63 33.362V11.6032H105.63V33.362H107.63ZM107.63 11.6032C107.63 6.67168 103.628 2.66989 98.6965 2.66989V4.66989C102.523 4.66989 105.63 7.77625 105.63 11.6032H107.63ZM98.6965 2.66989H41.2594V4.66989H98.6965V2.66989ZM41.2594 2.66989C36.3279 2.66989 32.3261 6.67168 32.3261 11.6032H34.3261C34.3261 7.77625 37.4325 4.66989 41.2594 4.66989V2.66989ZM32.3261 11.6032V79.4925H34.3261V11.6032H32.3261ZM32.3261 79.4925V122.612H34.3261V79.4925H32.3261Z" fill="#474747" mask="url(#path-3-inside-1_437_2609)"/>
</g>
<path id="Vector_4" d="M30.257 115.373V81.5482" stroke="#474747" stroke-miterlimit="10"/>
<path id="Vector_5" d="M109.8 9.77846V9.77913V33.8759V149.72C109.8 154.844 105.644 158.999 100.52 158.999H60.453C59.4659 158.148 58.4754 157.26 57.4844 156.329H98.6963C103.352 156.329 107.13 152.551 107.13 147.896V33.362V11.6032C107.13 6.94782 103.352 3.16989 98.6963 3.16989H41.2593C36.6039 3.16989 32.826 6.94782 32.826 11.6032V79.4925V120.272C32.1175 118.655 31.4269 116.991 30.7496 115.278V81.5482V9.77913C30.7496 4.6554 34.905 0.5 40.0288 0.5H100.528C105.651 0.5 109.806 4.65538 109.8 9.77846Z" fill="#312541" stroke="#474747"/>
</g>
<path id="Vector_6" d="M101.548 74.4624H101.555V83.9653L94.3505 73.6756L94.2012 73.4624H93.9409H45.9139C41.7198 73.4624 38.3937 70.3469 38.3937 66.5864V52.1023C38.3937 48.7837 41.3358 46.0226 45.0525 46.0226H94.795C98.5687 46.0226 101.548 48.8263 101.548 52.1964V73.9624V74.4624Z" fill="#FFEDF0" stroke="#474747"/>
<path id="Vector_7" d="M84.596 98.4928H54.7375C52.292 98.4928 50.3081 96.5089 50.3081 94.0634V86.8177C50.3081 84.3722 52.292 82.3884 54.7375 82.3884H84.596C87.0415 82.3884 89.0254 84.3722 89.0254 86.8177V94.0634C89.0254 96.5089 87.0415 98.4928 84.596 98.4928Z" fill="#272828" stroke="#474747"/>
<path id="Vector_8" d="M88.0341 9.27906H57.4082C57.1967 9.27906 57.0251 9.10937 57.0251 8.89597V7.60028C57.0251 7.38878 57.1948 7.21719 57.4082 7.21719H88.0341C88.2456 7.21719 88.4172 7.38688 88.4172 7.60028V8.89597C88.4172 9.10937 88.2456 9.27906 88.0341 9.27906Z" fill="white" stroke="#474747"/>
<path id="Vector_9" d="M51.139 8.2518C51.139 8.81917 50.6791 9.27911 50.1117 9.27911C49.5444 9.27911 49.0844 8.81917 49.0844 8.2518C49.0844 7.68443 49.5444 7.22449 50.1117 7.22449C50.6791 7.22449 51.139 7.68443 51.139 8.2518Z" fill="white" stroke="#474747"/>
<g id="Group_9">
<path id="Vector_10" d="M47.2257 53.9197H48.691L48.3485 56.9834L48.2661 57.7204L48.9803 57.5204L52.0946 56.6481L52.2763 58.0328L49.4541 58.234L48.5395 58.2992L49.0897 59.0327L50.9331 61.4906L49.6646 62.1679L48.3593 59.545L47.8837 58.5893L47.454 59.5665L46.3199 62.1457L44.9982 61.4787L46.8215 59.0314L47.3642 58.3031L46.4585 58.2341L43.6682 58.0218L43.8814 56.6545L46.9347 57.5269L47.6518 57.7318L47.5689 56.9906L47.2257 53.9197Z" fill="#FF2F2F" stroke="#474747"/>
<path id="Vector_11" d="M58.2136 53.9197H59.679L59.3365 56.9834L59.2541 57.7204L59.9683 57.5204L63.0826 56.6481L63.2643 58.0328L60.4421 58.234L59.5275 58.2992L60.0776 59.0327L61.9211 61.4906L60.6526 62.1679L59.3473 59.545L58.8717 58.5893L58.4419 59.5665L57.3078 62.1457L55.9862 61.4787L57.8095 59.0314L58.3522 58.3031L57.4465 58.2341L54.6562 58.0218L54.8694 56.6545L57.9226 57.5269L58.6398 57.7318L58.5569 56.9906L58.2136 53.9197Z" fill="#FF2F2F" stroke="#474747"/>
<path id="Vector_12" d="M69.2015 53.9197H70.6668L70.3244 56.9834L70.242 57.7204L70.9561 57.5204L74.0705 56.6481L74.2521 58.0328L71.4299 58.234L70.5153 58.2992L71.0655 59.0327L72.9089 61.4906L71.6404 62.1679L70.3351 59.545L69.8595 58.5893L69.4298 59.5665L68.2957 62.1457L66.974 61.4787L68.7973 59.0314L69.34 58.3031L68.4343 58.2341L65.6441 58.0218L65.8572 56.6545L68.9105 57.5269L69.6276 57.7318L69.5448 56.9906L69.2015 53.9197Z" fill="#FF2F2F" stroke="#474747"/>
<path id="Vector_13" d="M80.1968 53.9197H81.6549L81.3124 56.9834L81.2301 57.72L81.9439 57.5204L85.0657 56.6478L85.2474 58.0328L82.4252 58.234L81.5106 58.2992L82.0608 59.0327L83.9042 61.4906L82.6357 62.1679L81.3304 59.545L80.8548 58.5893L80.4251 59.5665L79.291 62.1457L77.9693 61.4787L79.7926 59.0314L80.3353 58.3031L79.4296 58.2341L76.6394 58.0218L76.8525 56.6545L79.9058 57.5269L80.6229 57.7318L80.5401 56.9906L80.1968 53.9197Z" fill="#FF2F2F" stroke="#474747"/>
<path id="Vector_14" d="M91.1774 53.9197H92.6427L92.3003 56.9834L92.2179 57.7204L92.932 57.5204L96.0463 56.6481L96.228 58.0328L93.4058 58.234L92.4912 58.2992L93.0414 59.0327L94.8848 61.4906L93.6163 62.1679L92.311 59.545L91.8354 58.5893L91.4057 59.5665L90.2716 62.1457L88.9499 61.4787L90.7732 59.0314L91.3159 58.3031L90.4102 58.2341L87.62 58.0218L87.8331 56.6545L90.8864 57.5269L91.6035 57.7318L91.5206 56.9906L91.1774 53.9197Z" fill="#FF2F2F" stroke="#474747"/>
</g>
</g>
<path id="Vector_15" d="M110.307 89.2644V114.476C110.307 114.476 112.601 123.647 114.128 125.934C115.656 128.229 105.725 145.037 101.903 146.564C98.0808 148.091 85.095 144.269 83.5677 136.633C82.0404 128.989 78.8265 116.865 75.7719 116.097C72.7173 115.33 68.4394 134.425 68.4394 143.596C68.4394 149.836 76.503 164.161 81.6568 172.687C88.6202 175.525 93.2672 176.089 93.3758 176.089C93.5857 176.097 111.313 173.911 129.662 156.618C132.615 149.38 135.858 142.271 137.053 134.345C139.34 119.065 110.307 89.2644 110.307 89.2644Z" fill="#F9A4B4"/>
</g>
<path id="Vector_16" d="M183.861 65.9567C194.18 61.7657 199.148 50.003 194.957 39.6841C190.766 29.3651 179.003 24.3975 168.684 28.5886C158.365 32.7796 153.398 44.5423 157.589 54.8612C161.78 65.1801 173.542 70.1478 183.861 65.9567Z" fill="white"/>
</g>
</svg>
