<svg width="120" height="120" viewBox="0 0 120 120" fill="none" xmlns="http://www.w3.org/2000/svg">
<path d="M95.1402 15.7222H84.2839V10.8655C84.2839 9.2942 82.5698 8.58003 80.9985 8.58003H72.5707C70.571 2.86618 65.5713 0.00924906 59.8574 0.00924906C54.2064 -0.203195 49.0665 3.26181 47.1441 8.58003H38.859C37.2877 8.58003 35.7164 9.2942 35.7164 10.8655V15.7222H24.8598C18.4264 15.7908 13.1631 20.866 12.8607 27.2927V109.143C12.8607 115.429 18.5745 120 24.8598 120H95.1402C101.425 120 107.139 115.429 107.139 109.143V27.2929C106.837 20.866 101.574 15.7908 95.1402 15.7222ZM41.43 14.2939H49.2866C50.658 14.1266 51.7596 13.0832 52.0008 11.7227C52.8467 8.03867 56.0788 5.39419 59.8574 5.29466C63.601 5.40813 66.7844 8.06082 67.571 11.7227C67.8272 13.1302 69.0016 14.187 70.428 14.2939H78.5703V25.7216H41.43V14.2939ZM101.425 109.144C101.425 112.286 98.2828 114.286 95.1402 114.286H24.8598C21.7172 114.286 18.5745 112.286 18.5745 109.144V27.2929C18.866 24.0218 21.5761 21.4962 24.8598 21.4363H35.7161V28.7215C35.867 30.3221 37.2533 31.5194 38.8588 31.4357H80.9982C82.6333 31.5251 84.063 30.3442 84.2836 28.7215V21.4361H95.1399C98.4234 21.4962 101.134 24.0215 101.425 27.2927V109.144H101.425Z" fill="#919191"/>
<path d="M87.8222 70.4004H30.5778C27.8286 70.4004 25.6 71.6539 25.6 73.2004C25.6 74.7468 27.8286 76.0004 30.5778 76.0004H87.8222C90.5714 76.0004 92.8 74.7468 92.8 73.2004C92.8 71.6539 90.5714 70.4004 87.8222 70.4004Z" fill="#919191"/>
<path d="M87.8222 47.2002H30.5778C27.8286 47.2002 25.6 48.4538 25.6 50.0002C25.6 51.5466 27.8286 52.8002 30.5778 52.8002H87.8222C90.5714 52.8002 92.8 51.5466 92.8 50.0002C92.8 48.4538 90.5714 47.2002 87.8222 47.2002Z" fill="#919191"/>
<path d="M87.8222 92.7998H30.5778C27.8286 92.7998 25.6 94.0534 25.6 95.5998C25.6 97.1463 27.8286 98.3998 30.5778 98.3998H87.8222C90.5714 98.3998 92.8 97.1463 92.8 95.5998C92.8 94.0534 90.5714 92.7998 87.8222 92.7998Z" fill="#919191"/>
</svg>
