<svg width="25" height="24" viewBox="0 0 25 24" fill="none" xmlns="http://www.w3.org/2000/svg">
<g id="visibility_off">
<path id="Vector" d="M12.5 5.97499C16.29 5.97499 19.67 8.10499 21.32 11.475C20.73 12.695 19.9 13.745 18.91 14.595L20.32 16.005C21.71 14.775 22.81 13.235 23.5 11.475C21.77 7.08499 17.5 3.97499 12.5 3.97499C11.23 3.97499 10.01 4.17499 8.86 4.54499L10.51 6.19499C11.16 6.06499 11.82 5.97499 12.5 5.97499ZM11.43 7.11499L13.5 9.18499C14.07 9.43499 14.53 9.89499 14.78 10.465L16.85 12.535C16.93 12.195 16.99 11.835 16.99 11.465C17 8.98499 14.98 6.97499 12.5 6.97499C12.13 6.97499 11.78 7.02499 11.43 7.11499ZM2.51 3.84499L5.19 6.52499C3.56 7.80499 2.27 9.50499 1.5 11.475C3.23 15.865 7.5 18.975 12.5 18.975C14.02 18.975 15.48 18.685 16.82 18.155L20.24 21.575L21.65 20.165L3.92 2.42499L2.51 3.84499ZM10.01 11.345L12.62 13.955C12.58 13.965 12.54 13.975 12.5 13.975C11.12 13.975 10 12.855 10 11.475C10 11.425 10.01 11.395 10.01 11.345ZM6.61 7.94499L8.36 9.69499C8.13 10.245 8 10.845 8 11.475C8 13.955 10.02 15.975 12.5 15.975C13.13 15.975 13.73 15.845 14.27 15.615L15.25 16.595C14.37 16.835 13.45 16.975 12.5 16.975C8.71 16.975 5.33 14.845 3.68 11.475C4.38 10.045 5.4 8.86499 6.61 7.94499Z" fill="white"/>
</g>
</svg>
