<svg width="208" height="218" viewBox="0 0 208 218" fill="none" xmlns="http://www.w3.org/2000/svg">
<g clip-path="url(#clip0_453_9038)">
<path d="M191.133 13.1957L16.2979 29.4729C7.49929 30.292 1.03071 38.0887 1.84985 46.8873L18.127 221.722C18.9462 230.521 26.7429 236.989 35.5415 236.17L210.376 219.893C219.175 219.074 225.644 211.277 224.824 202.479L208.547 27.6437C207.728 18.8451 199.931 12.3765 191.133 13.1957Z" fill="#800080"/>
<path d="M226.3 218.419C226.3 218.419 226.26 218.089 226.19 217.449C226.13 216.799 226.03 215.849 225.91 214.599C225.67 212.079 225.31 208.359 224.84 203.509C223.92 193.799 222.57 179.579 220.85 161.489C217.45 125.329 212.59 73.6889 206.76 11.7489L207.08 12.0089C147 17.6189 76.08 24.2289 0.41 31.2889H0.39L0.69 30.9289C7.72 106.619 14.31 177.559 19.89 237.629L19.57 237.369C81.53 231.659 133.17 226.909 169.34 223.579C187.44 221.929 201.66 220.629 211.37 219.739C216.22 219.299 219.94 218.969 222.46 218.739C223.71 218.629 224.66 218.549 225.31 218.489C225.97 218.439 226.3 218.419 226.3 218.419C226.3 218.419 225.99 218.459 225.36 218.519C224.72 218.579 223.78 218.679 222.54 218.799C220.03 219.039 216.33 219.399 211.51 219.859C201.82 220.779 187.62 222.129 169.56 223.839C133.36 227.249 81.66 232.109 19.63 237.939L19.34 237.969L19.31 237.679C13.7 177.609 7.09 106.679 0.02 30.9889L0 30.6589L0.33 30.6289H0.35C76.03 23.5989 146.96 17.0089 207.04 11.4289L207.33 11.3989L207.36 11.6889C213.07 73.7189 217.83 125.429 221.17 161.639C222.82 179.709 224.12 193.909 225 203.609C225.43 208.439 225.77 212.139 225.99 214.649C226.1 215.889 226.18 216.829 226.24 217.469C226.29 218.099 226.3 218.419 226.3 218.419Z" fill="#800080"/>
<path d="M20.1142 34.354L18.9082 21.3999C18.675 18.8951 16.4554 17.0535 13.9505 17.2867C11.4457 17.5199 9.60416 19.7396 9.83736 22.2444L11.0434 35.1985C11.2766 37.7033 13.4962 39.5448 16.0011 39.3116C18.5059 39.0784 20.3474 36.8588 20.1142 34.354Z" fill="#BAB2C5"/>
<path d="M201.134 17.4897L199.928 4.53564C199.695 2.0308 197.475 0.189277 194.97 0.422478C192.466 0.655679 190.624 2.8753 190.857 5.38014L192.063 18.3342C192.296 20.839 194.516 22.6806 197.021 22.4474C199.526 22.2142 201.367 19.9945 201.134 17.4897Z" fill="#BAB2C5"/>
<path d="M144.926 112.297C160.637 92.7542 157.531 64.1755 137.989 48.4643C118.446 32.7531 89.8674 35.8589 74.1562 55.4014C58.445 74.9438 61.5509 103.523 81.0933 119.234C100.636 134.945 129.215 131.839 144.926 112.297Z" fill="white"/>
<path d="M109.5 129.899C86.02 129.899 65.9 111.959 63.68 88.1191C61.33 62.8391 79.98 40.3591 105.26 37.9991C130.54 35.6491 153.02 54.2991 155.38 79.5791C157.73 104.859 139.08 127.339 113.8 129.699C112.36 129.829 110.92 129.899 109.5 129.899ZM109.57 39.0791C108.19 39.0791 106.79 39.1391 105.39 39.2691C80.81 41.5591 62.68 63.4091 64.97 87.9891C66.08 99.8991 71.76 110.659 80.96 118.289C90.16 125.919 101.78 129.519 113.69 128.409C138.27 126.119 156.4 104.269 154.11 79.6891C151.94 56.5291 132.39 39.0791 109.57 39.0791Z" fill="white"/>
<path d="M133.127 79.746C132.117 77.966 129.197 77.816 127.997 79.486C127.347 80.396 126.957 81.5261 126.607 82.6061C125.717 85.3561 124.927 88.1361 124.067 90.896C123.977 91.196 123.627 91.406 123.387 91.666C123.197 91.376 122.887 91.116 122.847 90.806C122.627 89.236 122.457 87.656 122.307 86.066C122.017 82.956 121.777 79.8561 121.487 76.746C121.007 71.5261 120.527 66.306 119.997 61.0861C119.937 60.5261 119.667 59.8961 119.307 59.4661C118.487 58.4961 117.007 58.296 115.787 58.836C114.757 59.286 114.107 60.4761 114.227 61.7861C114.727 67.3261 115.247 72.8661 115.767 78.3961C115.787 78.6561 115.877 78.936 115.807 79.166C115.737 79.376 115.497 79.646 115.317 79.666C115.137 79.686 114.847 79.466 114.737 79.266C114.617 79.056 114.647 78.7561 114.627 78.5061C114.027 72.0761 113.427 65.6461 112.827 59.2161C112.787 58.8161 112.767 58.406 112.687 58.006C112.437 56.846 111.807 56.256 110.647 56.066C108.267 55.666 106.697 57.1161 106.917 59.5161C107.497 65.866 108.097 72.206 108.687 78.556C108.717 78.926 108.787 79.316 108.737 79.6761C108.707 79.8661 108.467 80.156 108.297 80.1761C108.107 80.1961 107.797 79.996 107.717 79.816C107.587 79.5061 107.587 79.1461 107.557 78.7961C107.077 73.7161 106.627 68.646 106.127 63.566C105.957 61.806 104.707 60.856 102.947 61.026C101.187 61.196 100.157 62.3861 100.307 64.1261C100.797 69.5161 101.307 74.916 101.807 80.306C101.837 80.626 101.937 80.9561 101.867 81.2561C101.797 81.5461 101.557 81.796 101.397 82.066C101.167 81.826 100.757 81.606 100.727 81.346C100.507 79.386 100.367 77.4261 100.187 75.4661C99.9974 73.3861 99.8274 71.306 99.5974 69.236C99.4174 67.626 98.0574 66.666 96.3474 66.846C94.8174 67.016 93.9074 68.1361 94.0074 69.7161C94.2674 73.7861 94.5274 77.8661 94.7974 81.9361C94.7574 81.9361 94.8374 81.9361 94.7974 81.9361C95.0274 84.4161 95.2274 86.896 95.3574 89.386C95.6074 94.376 96.4874 99.2261 98.6274 103.756C100.637 108.026 103.987 110.786 108.657 111.646C113.707 112.576 118.457 111.506 122.777 108.806C125.687 106.986 127.857 104.436 128.737 101.076C130.387 94.786 131.907 88.4661 133.407 82.1461C133.567 81.4061 133.497 80.396 133.127 79.746Z" fill="#16161C"/>
<path d="M65.74 197.869L65.88 199.349L57.26 200.149L56.15 188.279L64.53 187.499L64.67 188.979L57.99 189.599L58.33 193.249L64.28 192.699L64.41 194.139L58.46 194.689L58.82 198.519L65.74 197.869Z" fill="white"/>
<path d="M72.38 189.589L72.53 191.169C72.39 191.169 72.27 191.179 72.15 191.189C70.4 191.349 69.42 192.519 69.6 194.489L70.02 198.969L68.39 199.119L67.55 190.129L69.11 189.979L69.25 191.489C69.73 190.379 70.8 189.739 72.38 189.589Z" fill="white"/>
<path d="M79.21 188.949L79.36 190.529C79.22 190.529 79.1 190.539 78.98 190.549C77.23 190.709 76.25 191.879 76.43 193.849L76.85 198.329L75.22 198.479L74.38 189.489L75.94 189.339L76.08 190.849C76.56 189.749 77.63 189.099 79.21 188.949Z" fill="white"/>
<path d="M80.72 193.429C80.47 190.749 82.28 188.669 84.98 188.409C87.68 188.159 89.82 189.879 90.07 192.559C90.32 195.239 88.53 197.339 85.83 197.589C83.13 197.849 80.97 196.119 80.72 193.429ZM88.42 192.719C88.24 190.799 86.84 189.689 85.11 189.849C83.38 190.009 82.19 191.369 82.37 193.289C82.55 195.209 83.97 196.339 85.7 196.179C87.43 196.009 88.6 194.629 88.42 192.719Z" fill="white"/>
<path d="M96.73 187.319L96.88 188.899C96.74 188.899 96.62 188.909 96.5 188.919C94.75 189.079 93.77 190.249 93.95 192.219L94.37 196.699L92.74 196.849L91.9 187.859L93.46 187.709L93.6 189.219C94.08 188.119 95.15 187.469 96.73 187.319Z" fill="white"/>
<path d="M105.22 185.199L105.6 189.339L111.56 188.789L111.7 190.249L105.74 190.799L106.19 195.599L104.49 195.759L103.38 183.889L111.76 183.109L111.9 184.589L105.22 185.199Z" fill="white"/>
<path d="M113.48 190.379C113.23 187.699 115.04 185.619 117.74 185.359C120.44 185.109 122.58 186.829 122.83 189.509C123.08 192.189 121.29 194.289 118.59 194.539C115.89 194.799 113.73 193.069 113.48 190.379ZM121.18 189.669C121 187.749 119.6 186.639 117.87 186.799C116.14 186.959 114.95 188.319 115.13 190.239C115.31 192.159 116.73 193.289 118.46 193.129C120.19 192.959 121.36 191.579 121.18 189.669Z" fill="white"/>
<path d="M129.49 184.269L129.64 185.849C129.5 185.849 129.38 185.859 129.26 185.869C127.51 186.029 126.53 187.199 126.71 189.169L127.13 193.649L125.5 193.799L124.66 184.809L126.22 184.659L126.36 186.169C126.84 185.069 127.91 184.419 129.49 184.269Z" fill="white"/>
<path d="M141.22 187.799C141.48 190.549 139.73 192.579 137.1 192.819C135.78 192.939 134.58 192.539 133.75 191.589L133.88 193.019L132.32 193.169L131.15 180.579L132.78 180.429L133.24 185.379C133.9 184.339 134.97 183.759 136.24 183.649C138.88 183.399 140.97 185.049 141.22 187.799ZM139.58 187.949C139.4 186.029 137.98 184.919 136.25 185.079C134.54 185.239 133.35 186.599 133.53 188.519C133.71 190.439 135.13 191.569 136.84 191.409C138.57 191.249 139.76 189.869 139.58 187.949Z" fill="white"/>
<path d="M142.51 180.339C142.45 179.749 142.88 179.229 143.51 179.169C144.14 179.109 144.66 179.519 144.71 180.099C144.77 180.709 144.35 181.229 143.71 181.289C143.08 181.349 142.57 180.939 142.51 180.339ZM143.06 183.099L144.69 182.949L145.53 191.939L143.9 192.089L143.06 183.099Z" fill="white"/>
<path d="M155.93 178.269L157.1 190.859L155.54 191.009L155.41 189.579C154.77 190.669 153.67 191.279 152.34 191.409C149.71 191.649 147.62 189.979 147.37 187.239C147.11 184.489 148.86 182.479 151.49 182.239C152.76 182.119 153.93 182.489 154.76 183.389L154.3 178.439L155.93 178.269ZM155.08 186.509C154.9 184.589 153.48 183.479 151.77 183.639C150.04 183.799 148.85 185.159 149.03 187.079C149.21 188.999 150.63 190.129 152.36 189.969C154.07 189.809 155.26 188.429 155.08 186.509Z" fill="white"/>
<path d="M167.5 177.189L168.67 189.779L167.11 189.929L166.98 188.499C166.34 189.589 165.24 190.199 163.91 190.329C161.28 190.569 159.19 188.899 158.94 186.159C158.68 183.409 160.43 181.399 163.06 181.159C164.33 181.039 165.5 181.409 166.33 182.309L165.87 177.359L167.5 177.189ZM166.64 185.439C166.46 183.519 165.04 182.409 163.33 182.569C161.6 182.729 160.41 184.089 160.59 186.009C160.77 187.929 162.19 189.059 163.92 188.899C165.63 188.729 166.82 187.349 166.64 185.439Z" fill="white"/>
<path d="M179.48 184.789L172.19 185.469C172.54 187.029 173.91 187.959 175.69 187.799C176.74 187.699 177.59 187.259 178.18 186.469L179.18 187.439C178.46 188.469 177.26 189.089 175.77 189.229C172.87 189.499 170.76 187.759 170.51 185.079C170.26 182.419 172 180.319 174.6 180.079C177.2 179.839 179.22 181.529 179.48 184.299C179.48 184.429 179.48 184.629 179.48 184.789ZM172.08 184.299L177.85 183.759C177.54 182.269 176.3 181.299 174.72 181.449C173.16 181.589 172.1 182.749 172.08 184.299Z" fill="white"/>
<path d="M190.18 182.559L190.66 187.729L189.03 187.879L188.57 182.889C188.41 181.129 187.44 180.339 185.9 180.489C184.17 180.649 183.15 181.789 183.33 183.739L183.76 188.369L182.13 188.519L181.29 179.529L182.85 179.379L182.98 180.739C183.56 179.759 184.66 179.129 186.09 178.999C188.28 178.799 189.94 179.909 190.18 182.559Z" fill="white"/>
<path d="M96.91 168.479L90.21 169.099L91.01 177.689L84.2 178.319L83.4 169.729L62.66 171.659L62.21 166.799L78.58 140.699L86.09 139.999L70.7 164.919L83.07 163.769L82.36 156.149L88.95 155.539L89.66 163.159L96.36 162.539L96.91 168.479Z" fill="#E8E8E8"/>
<path d="M168.91 159.479L162.21 160.099L163.01 168.689L156.2 169.319L155.4 160.729L134.66 162.659L134.21 157.799L150.58 131.699L158.09 130.999L142.7 155.919L155.07 154.769L154.36 147.149L160.95 146.539L161.66 154.159L168.36 153.539L168.91 159.479Z" fill="#E8E8E8"/>
<path d="M98.92 157.879C97.76 145.459 103.92 137.799 112.88 136.969C121.9 136.129 129.36 142.519 130.52 154.939C131.68 167.359 125.52 175.019 116.5 175.859C107.54 176.699 100.08 170.309 98.92 157.879ZM123.44 155.599C122.59 146.469 118.63 142.589 113.45 143.069C108.32 143.549 105.15 148.089 106 157.219C106.85 166.349 110.81 170.229 115.94 169.749C121.12 169.279 124.29 164.729 123.44 155.599Z" fill="#E8E8E8"/>
</g>
<defs>
<clipPath id="clip0_453_9038">
<rect width="208" height="218" fill="white"/>
</clipPath>
</defs>
</svg>
